<?xml version="1.0" encoding="UTF-8" standalone="no"?>
<!DOCTYPE svg PUBLIC "-//W3C//DTD SVG 1.1//EN" "http://www.w3.org/Graphics/SVG/1.1/DTD/svg11.dtd">
<!-- Generated by Microsoft Visio, SVG Export facade.svg Page-1 -->
<svg xmlns="http://www.w3.org/2000/svg" xmlns:xlink="http://www.w3.org/1999/xlink" xmlns:ev="http://www.w3.org/2001/xml-events"
		xmlns:v="http://schemas.microsoft.com/visio/2003/SVGExtensions/" width="7.24513in" height="4.33765in"
		viewBox="0 0 521.65 312.311" xml:space="preserve" color-interpolation-filters="sRGB" class="st16">
	<v:documentProperties v:langID="1033" v:metric="true" v:viewMarkup="false">
		<v:userDefs>
			<v:ud v:nameU="msvSubprocessMaster" v:prompt="" v:val="VT4(Rectangle)"/>
			<v:ud v:nameU="msvNoAutoConnect" v:val="VT0(1):26"/>
		</v:userDefs>
	</v:documentProperties>

	<style type="text/css">
	<![CDATA[
		.st1 {fill:#5b9bd5;stroke:#ffffff;stroke-linecap:round;stroke-linejoin:round;stroke-width:0.5}
		.st2 {fill:#ffffff;stroke:#5b9bd5;stroke-linecap:round;stroke-linejoin:round;stroke-width:0.5}
		.st3 {fill:#5b9ad4;font-family:Calibri;font-size:1.5em}
		.st4 {font-size:1em}
		.st5 {fill:#73ae42;stroke:#ffffff;stroke-linecap:round;stroke-linejoin:round;stroke-width:0.5}
		.st6 {fill:#ffffff;font-family:Calibri;font-size:1.16666em}
		.st7 {fill:none;stroke:none;stroke-linecap:round;stroke-linejoin:round;stroke-width:0.5}
		.st8 {fill:#ffffff;font-family:Calibri;font-size:1.99999em}
		.st9 {fill:#ffffff;stroke:#73ae42;stroke-linecap:round;stroke-linejoin:round;stroke-width:0.5}
		.st10 {fill:#73ad42;font-family:Calibri;font-size:1.99999em}
		.st11 {fill:#a5a5a5;stroke:#ffffff;stroke-linecap:round;stroke-linejoin:round;stroke-width:0.5}
		.st12 {marker-end:url(#mrkr4-33);stroke:#5592c9;stroke-linecap:round;stroke-linejoin:round;stroke-width:1.5}
		.st13 {fill:#5592c9;fill-opacity:1;stroke:#5592c9;stroke-opacity:1;stroke-width:0.37313432835821}
		.st14 {marker-end:url(#mrkr4-49);stroke:#6ca43d;stroke-linecap:round;stroke-linejoin:round;stroke-width:1.5}
		.st15 {fill:#6ca43d;fill-opacity:1;stroke:#6ca43d;stroke-opacity:1;stroke-width:0.37313432835821}
		.st16 {fill:none;fill-rule:evenodd;font-size:12px;overflow:visible;stroke-linecap:square;stroke-miterlimit:3}
	]]>
	</style>

	<defs id="Markers">
		<g id="lend4">
			<path d="M 2 1 L 0 0 L 2 -1 L 2 1 " style="stroke:none"/>
		</g>
		<marker id="mrkr4-33" class="st13" v:arrowType="4" v:arrowSize="2" v:setback="5.36" refX="-5.36" orient="auto"
				markerUnits="strokeWidth" overflow="visible">
			<use xlink:href="#lend4" transform="scale(-2.68,-2.68) "/>
		</marker>
		<marker id="mrkr4-49" class="st15" v:arrowType="4" v:arrowSize="2" v:setback="5.36" refX="-5.36" orient="auto"
				markerUnits="strokeWidth" overflow="visible">
			<use xlink:href="#lend4" transform="scale(-2.68,-2.68) "/>
		</marker>
	</defs>
	<g v:mID="0" v:index="1" v:groupContext="foregroundPage">
		<v:userDefs>
			<v:ud v:nameU="msvThemeOrder" v:val="VT0(0):26"/>
		</v:userDefs>
		<title>Page-1</title>
		<v:pageProperties v:drawingScale="0.0393701" v:pageScale="0.0393701" v:drawingUnits="24" v:shadowOffsetX="8.50394"
				v:shadowOffsetY="-8.50394"/>
		<v:layer v:name="Connector" v:index="0"/>
		<g id="shape4-1" v:mID="4" v:groupContext="shape" transform="translate(144.817,-80.8957)">
			<title>Round Corner Rectangle</title>
			<v:userDefs>
				<v:ud v:nameU="CTypeTopLeftSnip" v:prompt="" v:val="VT0(0):5"/>
				<v:ud v:nameU="CTypeTopRightSnip" v:prompt="" v:val="VT0(0):5"/>
				<v:ud v:nameU="CTypeBotLeftSnip" v:prompt="" v:val="VT0(0):5"/>
				<v:ud v:nameU="CTypeBotRightSnip" v:prompt="" v:val="VT0(0):5"/>
				<v:ud v:nameU="CornerLockHoriz" v:prompt="" v:val="VT0(0):5"/>
				<v:ud v:nameU="CornerLockVert" v:prompt="" v:val="VT0(0):5"/>
				<v:ud v:nameU="CornerLockDiag" v:prompt="" v:val="VT0(0):5"/>
				<v:ud v:nameU="TopLeftOffset" v:prompt="" v:val="VT0(0.15748031496063):24"/>
				<v:ud v:nameU="TopRightOffset" v:prompt="" v:val="VT0(0.15748031496063):24"/>
				<v:ud v:nameU="BotLeftOffset" v:prompt="" v:val="VT0(0.15748031496063):24"/>
				<v:ud v:nameU="BotRightOffset" v:prompt="" v:val="VT0(0.15748031496063):24"/>
				<v:ud v:nameU="visVersion" v:prompt="" v:val="VT0(15):26"/>
				<v:ud v:nameU="TopLeftOffset" v:prompt="" v:val="VT0(0.27559055168791):1"/>
				<v:ud v:nameU="TopRightOffset" v:prompt="" v:val="VT0(0.27559055168791):1"/>
				<v:ud v:nameU="BotLeftOffset" v:prompt="" v:val="VT0(0.27559055168791):1"/>
				<v:ud v:nameU="BotRightOffset" v:prompt="" v:val="VT0(0.27559055168791):1"/>
			</v:userDefs>
			<path d="M19.84 312.31 L178.58 312.31 A19.8422 19.8422 -180 0 0 198.43 292.47 L198.43 183.33 A19.8422 19.8422 -180 0
						 0 178.58 163.49 L19.84 163.49 A19.8422 19.8422 -180 0 0 0 183.33 L0 292.47 A19.8422 19.8422 -180 0 0 19.84
						 312.31 Z" class="st1"/>
		</g>
		<g id="shape5-3" v:mID="5" v:groupContext="shape" transform="translate(419.778,-210.439)">
			<title>Circle</title>
			<desc>Element1</desc>
			<v:userDefs>
				<v:ud v:nameU="visVersion" v:val="VT0(15):26"/>
			</v:userDefs>
			<v:textBlock v:margins="rect(4,4,4,4)" v:tabSpace="42.5197"/>
			<v:textRect cx="41.811" cy="270.5" width="73.17" height="62.7165"/>
			<path d="M0 270.5 A41.811 41.811 0 1 1 83.62 270.5 A41.811 41.811 0 1 1 0 270.5 Z" class="st2"/>
			<text x="11.46" y="265.1" class="st3" v:langID="1045"><v:paragraph v:horizAlign="1"/><v:tabList/>Element<tspan
						x="37.25" dy="1.2em" class="st4">1</tspan></text>		</g>
		<g id="shape6-7" v:mID="6" v:groupContext="shape" transform="translate(175.998,-98.6122)">
			<title>Ellipse</title>
			<desc>operation2()</desc>
			<v:userDefs>
				<v:ud v:nameU="visVersion" v:val="VT0(15):26"/>
			</v:userDefs>
			<v:textBlock v:margins="rect(4,4,4,4)" v:tabSpace="42.5197"/>
			<v:textRect cx="68.0315" cy="294.48" width="119.06" height="31.2035"/>
			<path d="M0 294.48 A68.0315 17.8306 0 1 1 136.06 294.48 A68.0315 17.8306 0 1 1 0 294.48 Z" class="st5"/>
			<text x="32.27" y="298.68" class="st6" v:langID="1045"><v:paragraph v:horizAlign="1"/><v:tabList/>operation2()</text>		</g>
		<g id="shape7-10" v:mID="7" v:groupContext="shape" transform="translate(165.609,-194.053)">
			<title>Sheet.7</title>
			<desc>Facade</desc>
			<v:textBlock v:margins="rect(4,4,4,4)" v:tabSpace="42.5197"/>
			<v:textRect cx="78.421" cy="294.48" width="156.85" height="35.6612"/>
			<rect x="0" y="276.65" width="156.842" height="35.6612" class="st7"/>
			<text x="44.06" y="301.68" class="st8" v:langID="1045"><v:paragraph v:horizAlign="1"/><v:tabList/>Facade</text>		</g>
		<g id="shape9-13" v:mID="9" v:groupContext="shape" transform="translate(336.738,-38.9094)">
			<title>Sheet.9</title>
			<rect x="0" y="292.311" width="152" height="20" class="st7"/>
		</g>
		<g id="shape10-15" v:mID="10" v:groupContext="shape" transform="translate(419.778,-114.344)">
			<title>Circle.15</title>
			<desc>Element2</desc>
			<v:userDefs>
				<v:ud v:nameU="visVersion" v:val="VT0(15):26"/>
			</v:userDefs>
			<v:textBlock v:margins="rect(4,4,4,4)" v:tabSpace="42.5197"/>
			<v:textRect cx="41.811" cy="270.5" width="73.17" height="62.7165"/>
			<path d="M0 270.5 A41.811 41.811 0 1 1 83.62 270.5 A41.811 41.811 0 1 1 0 270.5 Z" class="st2"/>
			<text x="11.46" y="265.1" class="st3" v:langID="1045"><v:paragraph v:horizAlign="1"/><v:tabList/>Element<tspan
						x="37.25" dy="1.2em" class="st4">2</tspan></text>		</g>
		<g id="shape11-19" v:mID="11" v:groupContext="shape" transform="translate(419.778,-18.25)">
			<title>Circle.16</title>
			<desc>Utils</desc>
			<v:userDefs>
				<v:ud v:nameU="visVersion" v:val="VT0(15):26"/>
			</v:userDefs>
			<v:textBlock v:margins="rect(4,4,4,4)" v:tabSpace="42.5197"/>
			<v:textRect cx="41.811" cy="270.5" width="73.17" height="62.7165"/>
			<path d="M0 270.5 A41.811 41.811 0 1 1 83.62 270.5 A41.811 41.811 0 1 1 0 270.5 Z" class="st9"/>
			<text x="19.89" y="277.7" class="st10" v:langID="1045"><v:paragraph v:horizAlign="1"/><v:tabList/>Utils</text>		</g>
		<g id="shape17-22" v:mID="17" v:groupContext="shape" transform="translate(18.25,-113.494)">
			<title>Circle.17</title>
			<desc>Client</desc>
			<v:userDefs>
				<v:ud v:nameU="visVersion" v:val="VT0(15):26"/>
			</v:userDefs>
			<v:textBlock v:margins="rect(4,4,4,4)" v:tabSpace="42.5197"/>
			<v:textRect cx="41.811" cy="270.5" width="73.17" height="62.7165"/>
			<path d="M0 270.5 A41.811 41.811 0 1 1 83.62 270.5 A41.811 41.811 0 1 1 0 270.5 Z" class="st11"/>
			<text x="13.61" y="277.7" class="st8" v:langID="1045"><v:paragraph v:horizAlign="1"/><v:tabList/>Client</text>		</g>
		<g id="shape18-25" v:mID="18" v:groupContext="shape" transform="translate(175.998,-149.636)">
			<title>Ellipse.18</title>
			<desc>operation1()</desc>
			<v:userDefs>
				<v:ud v:nameU="visVersion" v:val="VT0(15):26"/>
			</v:userDefs>
			<v:textBlock v:margins="rect(4,4,4,4)" v:tabSpace="42.5197"/>
			<v:textRect cx="68.0315" cy="294.48" width="119.06" height="31.2035"/>
			<path d="M0 294.48 A68.0315 17.8306 0 1 1 136.06 294.48 A68.0315 17.8306 0 1 1 0 294.48 Z" class="st5"/>
			<text x="32.27" y="298.68" class="st6" v:langID="1045"><v:paragraph v:horizAlign="1"/><v:tabList/>operation1()</text>		</g>
		<g id="shape20-28" v:mID="20" v:groupContext="shape" v:layerMember="0" transform="translate(337.43,-223.903)">
			<title>Dynamic connector.20</title>
			<path d="M0 312.31 L16.44 312.31 L16.44 283.96 L74.31 283.96" class="st12"/>
		</g>
		<g id="shape21-34" v:mID="21" v:groupContext="shape" v:layerMember="0" transform="translate(343.242,-148.644)">
			<title>Dynamic connector.21</title>
			<path d="M0 305.65 L68.5 304.89" class="st12"/>
		</g>
		<g id="shape22-39" v:mID="22" v:groupContext="shape" v:layerMember="0" transform="translate(337.43,-86.7076)">
			<title>Dynamic connector.22</title>
			<path d="M0 312.31 L17.15 312.31 L17.15 338.96 L74.31 338.96" class="st12"/>
		</g>
		<g id="shape26-44" v:mID="26" v:groupContext="shape" v:layerMember="0" transform="translate(101.872,-154.299)">
			<title>Dynamic connector</title>
			<path d="M0 311.31 L10.63 311.31 L10.63 299.14 L66.09 299.14" class="st14"/>
		</g>
		<g id="shape27-50" v:mID="27" v:groupContext="shape" v:layerMember="0" transform="translate(101.872,-155.305)">
			<title>Dynamic connector.27</title>
			<path d="M0 312.31 L10.63 312.31 L10.63 351.17 L66.09 351.17" class="st14"/>
		</g>
	</g>
</svg>
